<svg version="1.1" xmlns="http://www.w3.org/2000/svg" viewBox="0 0 1489.2935702636173 644.6076000376102" width="2978.5871405272346" height="1289.2152000752203">
  <!-- svg-source:excalidraw -->
  
  <defs>
    <style>
      @font-face {
        font-family: "Virgil";
        src: url("https://excalidraw.com/Virgil.woff2");
      }
      @font-face {
        font-family: "Cascadia";
        src: url("https://excalidraw.com/Cascadia.woff2");
      }
    </style>
  </defs>
  <rect x="0" y="0" width="1489.2935702636173" height="644.6076000376102" fill="#ffffff"></rect><g stroke-linecap="round"><g transform="translate(278.02832204136223 466.3444299791008) rotate(0 -2.8606810902130064 76.40760028997715)" fill-rule="evenodd"><path d="M0.78 0.79 L87.2 153.09 L-90.06 152.33 L-0.31 -0.39" stroke="none" stroke-width="0" fill="#fa5252" fill-rule="evenodd"></path><path d="M-0.63 -0.48 C18.27 36.6, 37.92 70.47, 84.24 151.83 M-0.84 0.76 C31.55 56.66, 63.88 114.63, 85.4 153.27 M84.11 153.49 C18.61 148.89, -47.41 149.8, -91.26 149.82 M85.54 153.95 C36.57 151.5, -12.99 151.32, -90.32 150.94 M-89.63 150.52 C-69.87 120.71, -51.85 88.51, -0.21 -1.13 M-91.23 151.72 C-61.38 102.97, -31.37 53.86, -0.6 -0.09 M0 0 C0 0, 0 0, 0 0 M0 0 C0 0, 0 0, 0 0" stroke="#000000" stroke-width="1" fill="none"></path></g></g><g stroke-linecap="round"><g transform="translate(1035.0385149124563 475.11281681992114) rotate(0 -2.8012099742774126 76.1043007954238)" fill-rule="evenodd"><path d="M-0.65 1.14 L86.09 154.87 L-89.06 151.1 L0.95 1.19" stroke="none" stroke-width="0" fill="#fa5252" fill-rule="evenodd"></path><path d="M-1.58 -0.95 C22.32 36.04, 41.49 74.37, 84.01 152.53 M0.17 -0.68 C32.62 58.08, 66.51 115.86, 85.86 153.75 M85.83 152.25 C48.99 152.72, 9.85 152.04, -91.86 151.32 M86.62 152.26 C39.87 152.62, -5.84 152.29, -90.98 150.96 M-92.22 152.97 C-53.57 90.2, -17 33.29, -0.63 -1.54 M-89.74 151.73 C-68.41 116.07, -47.35 79.71, 0.24 0.36 M0 0 C0 0, 0 0, 0 0 M0 0 C0 0, 0 0, 0 0" stroke="#000000" stroke-width="1" fill="none"></path></g></g><g stroke-linecap="round"><g transform="translate(1029.3253954056204 323.447014817968) rotate(0 -1.979046416643655 77.06913396001141)" fill-rule="evenodd"><path d="M1.11 1.75 L85.97 153.5 L-88.48 149.51 L-0.9 1.59" stroke="none" stroke-width="0" fill="#fa5252" fill-rule="evenodd"></path><path d="M-0.09 0.47 C29.32 49.9, 59.67 104.79, 86.79 154.8 M-0.37 0.15 C20.42 33.57, 40.81 70.01, 85.09 153.21 M86.75 151.6 C47.1 152.77, 10.69 152.41, -89.5 150.37 M85.56 152.92 C45.51 152.37, 5.71 151.16, -90.74 151.75 M-89.26 149.68 C-71.42 120.99, -54.08 87.63, 0.07 1.48 M-89.73 150.47 C-67.22 113.48, -46.27 76.92, 0.71 -0.66 M0 0 C0 0, 0 0, 0 0 M0 0 C0 0, 0 0, 0 0" stroke="#000000" stroke-width="1" fill="none"></path></g></g><g stroke-linecap="round"><g transform="translate(1033.6506517532766 172.04271031357348) rotate(0 -2.6153757694993374 76.66176237941066)" fill-rule="evenodd"><path d="M1.59 1.63 L86.35 153.25 L-90.39 150.27 L0.69 -1.67" stroke="none" stroke-width="0" fill="#fa5252" fill-rule="evenodd"></path><path d="M-0.46 -0.61 C33.24 56.27, 64.69 114.69, 85.68 153.94 M-0.97 -0.62 C19.28 38.41, 40.44 77.21, 86.34 153.91 M84.56 152.22 C36.28 151.34, -13.02 152.12, -91.57 152.12 M86.02 152.19 C19.71 153.53, -47.55 153.41, -90.4 151.93 M-88.56 152.54 C-69 119.17, -49.63 83.77, -0.71 1.91 M-91.07 151.99 C-69.57 116.25, -50.07 82.52, 0.86 0.6 M0 0 C0 0, 0 0, 0 0 M0 0 C0 0, 0 0, 0 0" stroke="#000000" stroke-width="1" fill="none"></path></g></g><g stroke-linecap="round"><g transform="translate(1040.1479204300344 16.774804124608636) rotate(0 -1.5153055900592562 76.26837635722289)" fill-rule="evenodd"><path d="M1.64 1.18 L86.14 151.98 L-88.89 151.64 L1.42 0.36" stroke="none" stroke-width="0" fill="#fa5252" fill-rule="evenodd"></path><path d="M1.44 -1.68 C31.93 53.58, 60.5 111.8, 85.72 152.14 M0.88 -0.89 C27.22 48.3, 56.17 97.04, 85.25 153.48 M87.72 154.21 C36.32 151.04, -14.38 152.75, -89.38 150.25 M86.55 152.39 C33.04 154.08, -19.73 152.88, -90.58 150.45 M-90.75 152.8 C-57.8 99.04, -29.52 45.46, 0.38 -1.56 M-89.48 151.85 C-59.9 104.76, -33.13 57.51, -0.26 -0.81 M0 0 C0 0, 0 0, 0 0 M0 0 C0 0, 0 0, 0 0" stroke="#000000" stroke-width="1" fill="none"></path></g></g><g stroke-linecap="round"><g transform="translate(368.64343434604973 316.3429041001946) rotate(0 -2.328790648083782 76.59940003633778)" fill-rule="evenodd"><path d="M-0.35 -1 L86.94 151.38 L-89.33 149.61 L-0.95 0.06" stroke="none" stroke-width="0" fill="#fa5252" fill-rule="evenodd"></path><path d="M-1.33 -0.82 C30.79 55.58, 62.66 113.07, 84.73 153.81 M-0.95 0.66 C29.97 54, 62.48 110.66, 85.47 153.33 M85.52 153.08 C15.02 153.39, -50.8 153.8, -88.73 150.17 M86.22 154.02 C48.15 153.68, 10.85 151.88, -89.88 151.88 M-88.87 151.61 C-55.5 98.69, -24.61 45.81, 0.87 -0.68 M-90.87 151.52 C-59.27 96.31, -27.3 43.47, 0.24 0.51 M0 0 C0 0, 0 0, 0 0 M0 0 C0 0, 0 0, 0 0" stroke="#000000" stroke-width="1" fill="none"></path></g></g><g stroke-linecap="round"><g transform="translate(460.6820467117724 166.35244084335864) rotate(0 -2.984611737716591 76.88488748606572)" fill-rule="evenodd"><path d="M0.35 0.53 L87.08 154.66 L-89.43 149.93 L1.48 0.73" stroke="none" stroke-width="0" fill="#fa5252" fill-rule="evenodd"></path><path d="M-1.48 -0.52 C27.42 51.93, 60.53 107.19, 85.45 154.29 M-0.62 0.64 C20.02 39.15, 41.11 76.52, 85.18 153.43 M83.96 153.46 C44.46 154.46, 4.55 152.86, -92.14 150.25 M86.18 153.01 C22.82 153.07, -41.38 151.93, -89.75 151.13 M-91.48 150.23 C-59.76 102.8, -32.63 53.91, -0.53 1.44 M-90.99 151.33 C-65.63 108.16, -39.6 64.77, 0.68 0.45 M0 0 C0 0, 0 0, 0 0 M0 0 C0 0, 0 0, 0 0" stroke="#000000" stroke-width="1" fill="none"></path></g></g><g stroke-linecap="round"><g transform="translate(101.1344621780811 463.1677942369133) rotate(0 -2.32805316493625 76.4903751090439)" fill-rule="evenodd"><path d="M0.35 -1.13 L84.86 151.5 L-90.79 149.9 L1.13 0.85" stroke="none" stroke-width="0" fill="#ced4da" fill-rule="evenodd"></path><path d="M0.73 0.73 C25.94 42.56, 48.99 82.44, 85.06 153.52 M-0.36 0.91 C17.94 31.75, 36.38 63.99, 86.48 152.3 M85.57 153.11 C21.64 154.27, -42.02 155.17, -91.13 150.43 M86.09 153.81 C41.77 151.88, -1.22 150.76, -90.73 151.42 M-88.51 151.43 C-65.53 106.39, -38.71 66.49, 0.72 -1.05 M-89.54 151.47 C-65.77 110.67, -42.13 70.81, 0.13 0.92 M0 0 C0 0, 0 0, 0 0 M0 0 C0 0, 0 0, 0 0" stroke="#000000" stroke-width="1" fill="none"></path></g></g><g stroke-linecap="round"><g transform="translate(858.144655049175 471.93618107773364) rotate(0 -1.8645423391718623 76.37158742483984)" fill-rule="evenodd"><path d="M0.33 1.7 L86.94 152.98 L-89.29 152.48 L-1.2 -1.35" stroke="none" stroke-width="0" fill="#ced4da" fill-rule="evenodd"></path><path d="M0.61 -1.96 C21.96 42.82, 46.23 87.63, 87.3 154.71 M-0.89 0.2 C25.33 44.39, 49.16 88.3, 84.93 153.67 M87.21 152.38 C25.98 150.65, -36.46 151.1, -91.03 152.29 M85.78 153.41 C36.11 151.44, -14.68 150.18, -89.29 151.12 M-89.49 149.34 C-66.42 116.81, -48.05 79.71, -1.3 -1.52 M-90.79 151.69 C-64.27 104.51, -35.88 59.25, -0.1 0.09 M0 0 C0 0, 0 0, 0 0 M0 0 C0 0, 0 0, 0 0" stroke="#000000" stroke-width="1" fill="none"></path></g></g><g stroke-linecap="round"><g transform="translate(852.431535542339 320.2703790757805) rotate(0 -2.2318688372034785 75.8701769991992)" fill-rule="evenodd"><path d="M1.75 0.21 L86.09 154.93 L-92.03 150.39 L1.59 1.37" stroke="none" stroke-width="0" fill="#ced4da" fill-rule="evenodd"></path><path d="M0.47 -1.47 C33.34 59.44, 69.27 120.92, 87.39 151.72 M0.15 -0.1 C31.5 57.17, 64.48 111.79, 85.8 152.29 M84.19 151.91 C22.48 153.11, -39.16 153.47, -91.17 149.87 M85.51 153.21 C51.27 153, 15.16 151.56, -89.79 150.36 M-91.86 152.85 C-54.17 92.04, -21.05 32.77, 1.48 -1.19 M-91.07 151.36 C-72.68 117.38, -53.33 86, -0.66 0.25 M0 0 C0 0, 0 0, 0 0 M0 0 C0 0, 0 0, 0 0" stroke="#000000" stroke-width="1" fill="none"></path></g></g><g stroke-linecap="round"><g transform="translate(856.7567918899953 168.86607457138598) rotate(0 -1.533912914979851 76.32569902979115)" fill-rule="evenodd"><path d="M1.63 0.59 L85.85 153.03 L-91.27 151.98 L-1.67 1.56" stroke="none" stroke-width="0" fill="#ced4da" fill-rule="evenodd"></path><path d="M-0.61 0.34 C30.95 57.86, 64.94 115.36, 86.54 152.11 M-0.62 -0.61 C17.16 33.15, 36.57 67.33, 86.51 152.99 M84.81 153.4 C17.48 152.03, -48.66 149.35, -89.41 152.91 M84.78 154.15 C26 153.75, -32.51 152.2, -89.6 150.52 M-89 151.61 C-66.32 113.31, -46.08 76.12, 1.91 -1.5 M-89.55 152.23 C-60.97 101.13, -30.21 50.81, 0.6 -0.51 M0 0 C0 0, 0 0, 0 0 M0 0 C0 0, 0 0, 0 0" stroke="#000000" stroke-width="1" fill="none"></path></g></g><g stroke-linecap="round"><g transform="translate(863.2540605667531 13.598168382421136) rotate(0 -2.2433004120249507 76.46624524784231)" fill-rule="evenodd"><path d="M1.18 0.38 L84.57 154.52 L-89.9 152.71 L0.36 0.4" stroke="none" stroke-width="0" fill="#ced4da" fill-rule="evenodd"></path><path d="M-1.68 1.56 C19.77 33.68, 41.82 70.51, 84.73 153.49 M-0.89 -0.94 C30.9 56.71, 62.91 111.82, 86.07 153 M86.8 153.67 C21.87 153.95, -38.57 154.42, -91.29 151.27 M84.99 153.07 C33.37 153.75, -20.58 153.09, -91.08 151.8 M-88.74 153.18 C-55.52 93.7, -22.43 39.23, -1.56 0.21 M-89.69 152.15 C-71.68 119.3, -53.5 88.52, -0.81 -0.82 M0 0 C0 0, 0 0, 0 0 M0 0 C0 0, 0 0, 0 0" stroke="#000000" stroke-width="1" fill="none"></path></g></g><g stroke-linecap="round"><g transform="translate(191.74957448276848 313.1662683580071) rotate(0 -2.3762354731444475 76.8211573048709)" fill-rule="evenodd"><path d="M-1 1.18 L83.97 154.08 L-91.93 150.34 L0.06 -0.28" stroke="none" stroke-width="0" fill="#ced4da" fill-rule="evenodd"></path><path d="M-0.82 -0.6 C23.14 41.39, 46.93 82.34, 86.4 154.4 M0.66 -0.76 C23.87 44.55, 49.21 86.54, 85.92 154.1 M85.68 151.7 C37.31 154.44, -10.26 153.43, -91.36 149.6 M86.61 153.52 C20.38 154.26, -47.22 152.92, -89.66 151.81 M-89.93 152.83 C-71.25 120.24, -52.31 89.38, -0.68 1.09 M-90.02 151.1 C-60.15 98.11, -27.43 45.02, 0.51 -0.26 M0 0 C0 0, 0 0, 0 0 M0 0 C0 0, 0 0, 0 0" stroke="#000000" stroke-width="1" fill="none"></path></g></g><g stroke-linecap="round"><g transform="translate(283.78818684849114 163.17580510117114) rotate(0 -2.2172841543216464 76.04406126618663)" fill-rule="evenodd"><path d="M0.53 1.32 L87.25 153.98 L-91.6 152.77 L0.73 -1.17" stroke="none" stroke-width="0" fill="#ced4da" fill-rule="evenodd"></path><path d="M-0.52 -1.73 C17.91 34.36, 37.12 65.93, 86.88 152.18 M0.64 0.06 C17.96 31.08, 34.27 61.71, 86.02 152.51 M86.05 153.04 C25.2 152.07, -37.04 148.38, -91.29 152.52 M85.61 153.82 C42.94 153.49, -0.32 153.48, -90.41 151.47 M-91.31 152.42 C-67.34 112.47, -44.88 73.43, 1.44 -0.31 M-90.21 150.69 C-60.96 101.52, -31.35 52.27, 0.45 0.37 M0 0 C0 0, 0 0, 0 0 M0 0 C0 0, 0 0, 0 0" stroke="#000000" stroke-width="1" fill="none"></path></g></g><g stroke-linecap="round"><g transform="translate(376.0987489822802 10.857422837987542) rotate(0 -2.688026379968619 77.13205202698985)" fill-rule="evenodd"><path d="M-0.8 -0.37 L86.32 151.88 L-89.93 149.56 L-1.56 -1.91" stroke="none" stroke-width="0" fill="#ced4da" fill-rule="evenodd"></path><path d="M0.79 -0.36 C33.32 60.22, 66.43 118.8, 83.87 154.91 M-0.89 -0.12 C30.31 54.85, 59.97 108.89, 86.27 152.92 M86.83 155.12 C16.9 151.24, -52.12 150.23, -92.2 151.08 M85.2 153.91 C41.01 151.56, -3.02 150.23, -90.92 150.81 M-89.34 149.85 C-63.16 106.02, -36.15 60.27, -1.57 0.13 M-89.48 151.52 C-55.07 92.8, -20.31 33.85, 0.38 -0.86 M0 0 C0 0, 0 0, 0 0 M0 0 C0 0, 0 0, 0 0" stroke="#000000" stroke-width="1" fill="none"></path></g></g><g stroke-linecap="round"><g transform="translate(454.62414723667473 469.9383630845696) rotate(0 -1.9379112615134773 75.99256326986756)" fill-rule="evenodd"><path d="M-0.02 -1.42 L84.99 153.03 L-90.69 149.76 L1.91 1.63" stroke="none" stroke-width="0" fill="#e64980" fill-rule="evenodd"></path><path d="M-1.22 -1.9 C30.69 54.47, 61.1 113.04, 85.09 151.58 M0.12 0.1 C21.41 40.21, 44.61 79.11, 85.39 153.89 M85.83 152.01 C28.42 152.03, -29.8 150.58, -89.22 149.5 M85.71 153.6 C17.1 152.59, -50.97 153.01, -89.33 151.43 M-89.25 150.2 C-69.78 119.16, -50.23 85.91, -0.7 -0.38 M-89.71 151.8 C-66.42 111.69, -43.18 73.28, -0.96 -0.4 M0 0 C0 0, 0 0, 0 0 M0 0 C0 0, 0 0, 0 0" stroke="#000000" stroke-width="1" fill="none"></path></g></g><g stroke-linecap="round"><g transform="translate(1211.6343401077688 478.7067499253899) rotate(0 -2.338539081800377 76.01933914266806)" fill-rule="evenodd"><path d="M1.18 -0.19 L86.71 154.36 L-91.44 149.94 L-1.39 1.46" stroke="none" stroke-width="0" fill="#e64980" fill-rule="evenodd"></path><path d="M-1.43 -1.52 C20.35 38.85, 45.28 79.67, 85.45 153.51 M0.67 0.24 C18.62 35.91, 37.56 71.33, 86.19 153.2 M86.28 152.1 C39.44 152.03, -4.4 152.52, -90.58 153.02 M85.97 153.56 C48.12 152.87, 12.9 152.63, -90.96 150.3 M-88.58 152.21 C-56.81 92.56, -22.84 34.51, 0.08 1 M-90.95 150.91 C-58.16 99.27, -27.47 46.98, -0.46 0.19 M0 0 C0 0, 0 0, 0 0 M0 0 C0 0, 0 0, 0 0" stroke="#000000" stroke-width="1" fill="none"></path></g></g><g stroke-linecap="round"><g transform="translate(1205.9212206009329 327.04094792343676) rotate(0 -2.9283661965165493 76.37173629489075)" fill-rule="evenodd"><path d="M0.21 0.33 L87.53 151.38 L-91.15 152.88 L1.37 0.61" stroke="none" stroke-width="0" fill="#e64980" fill-rule="evenodd"></path><path d="M-1.47 -1.75 C33.68 61.66, 69.51 123.88, 84.31 154.49 M-0.1 -0.78 C30.89 55.49, 60.13 109.54, 84.88 153.67 M84.51 151.59 C16.93 149.52, -50.6 149.41, -91.66 149.31 M85.81 154.01 C45.63 152.36, 3.87 152.31, -91.18 152.2 M-88.69 152.4 C-62.02 102.88, -33.5 57.24, -1.19 -1.67 M-90.18 150.65 C-56.67 92.46, -20.24 33.9, 0.25 -0.08 M0 0 C0 0, 0 0, 0 0 M0 0 C0 0, 0 0, 0 0" stroke="#000000" stroke-width="1" fill="none"></path></g></g><g stroke-linecap="round"><g transform="translate(1210.2464769485891 175.63664341904223) rotate(0 -2.1383480263758656 76.50360123191307)" fill-rule="evenodd"><path d="M0.59 0.09 L85.62 152.14 L-89.56 149.62 L1.56 -1.21" stroke="none" stroke-width="0" fill="#e64980" fill-rule="evenodd"></path><path d="M0.34 -0.74 C22.19 41.43, 44.57 81.4, 84.7 151.47 M-0.61 -0.11 C16.96 35.45, 37.25 69.42, 85.58 154 M85.99 152.32 C38.1 152.28, -12.18 152.13, -88.63 152.01 M86.74 152.52 C16.51 150.65, -54.41 150.59, -91.02 150.73 M-89.93 152.2 C-71 114.86, -50.43 82.58, -1.5 0.75 M-89.31 150.52 C-59.4 100.8, -29.2 52.46, -0.51 -0.99 M0 0 C0 0, 0 0, 0 0 M0 0 C0 0, 0 0, 0 0" stroke="#000000" stroke-width="1" fill="none"></path></g></g><g stroke-linecap="round"><g transform="translate(1216.743745625347 20.368737230077386) rotate(0 -2.003338765527701 76.31845290150771)" fill-rule="evenodd"><path d="M0.38 -1.19 L87.11 153.51 L-88.82 151.66 L0.4 0.32" stroke="none" stroke-width="0" fill="#e64980" fill-rule="evenodd"></path><path d="M1.56 -1.67 C34.07 62.34, 69.56 122.04, 86.08 154.55 M-0.94 -0.33 C25.62 42.5, 47.54 84.51, 85.6 153.73 M86.26 151.97 C36.61 154.61, -11.11 152, -90.26 151.35 M85.67 154.09 C27.23 151.47, -31.16 149.72, -89.74 152.02 M-88.36 151.63 C-68.97 112.92, -44.73 74.02, 0.21 -1.91 M-89.38 152.25 C-59.76 97.79, -27.59 42.56, -0.82 0.51 M0 0 C0 0, 0 0, 0 0 M0 0 C0 0, 0 0, 0 0" stroke="#000000" stroke-width="1" fill="none"></path></g></g><g stroke-linecap="round"><g transform="translate(545.2392595413622 319.9368372056633) rotate(0 -2.468853425409293 76.50669396791886)" fill-rule="evenodd"><path d="M1.18 -1.79 L86.68 151.49 L-91.2 151.35 L-0.28 -1.95" stroke="none" stroke-width="0" fill="#e64980" fill-rule="evenodd"></path><path d="M-0.6 -0.85 C28.64 54.1, 58.42 108.97, 87 152.78 M-0.76 -0.98 C29.31 53.36, 58.33 106.89, 86.7 152.94 M84.3 153.44 C28.09 153.88, -32.07 150.7, -91.93 152.82 M86.11 153.99 C33.02 153.52, -21.34 154.11, -89.72 150.35 M-88.71 152.27 C-60.49 101.99, -30.13 49.41, 1.09 1.08 M-90.44 150.62 C-55.48 94.15, -21 37.51, -0.26 0.75 M0 0 C0 0, 0 0, 0 0 M0 0 C0 0, 0 0, 0 0" stroke="#000000" stroke-width="1" fill="none"></path></g></g><g stroke-linecap="round"><g transform="translate(367.88122731479973 468.4721765611321) rotate(180 -1.5741327737342772 76.47900596384238)" fill-rule="evenodd"><path d="M0.24 -1.08 L84.87 154.33 L-90.92 149.7 L-0.81 -0.64" stroke="none" stroke-width="0" fill="#e64980" fill-rule="evenodd"></path><path d="M-1.84 -0.07 C32.67 58.3, 67.85 119.29, 86.88 154.03 M-0.06 0.38 C26.67 48.01, 52.75 96.9, 86.74 153.7 M85.45 154.61 C27.22 151.26, -34.28 151.08, -89.26 152.89 M86.18 152.58 C25.85 151.44, -33.56 151.23, -89.56 151.95 M-88.81 149.95 C-61.34 102.48, -30.99 55.35, -1.62 -1.65 M-90.02 151.69 C-68.33 110.05, -44.17 71.32, 0.11 0.17 M0 0 C0 0, 0 0, 0 0 M0 0 C0 0, 0 0, 0 0" stroke="#000000" stroke-width="1" fill="none"></path></g></g><g stroke-linecap="round"><g transform="translate(1124.8914201858938 477.2405634019524) rotate(180 -3.376275795686638 76.40564659081679)" fill-rule="evenodd"><path d="M0.95 1.19 L84.56 151.82 L-91.63 152.75 L1.63 0.7" stroke="none" stroke-width="0" fill="#e64980" fill-rule="evenodd"></path><path d="M-1.75 -0.64 C17.76 33.11, 33.22 62.84, 84.4 151.39 M0.1 0.59 C27.66 49.34, 56.37 97.93, 85.3 153.89 M84.14 153.2 C39.09 152.74, -6.34 152.98, -92.05 151.34 M85.02 152.83 C29.66 153.08, -29.05 151.66, -89.41 151.67 M-90.87 149.75 C-74.53 118.72, -54.87 90.6, 0.88 -1.08 M-90.01 151.65 C-58.62 100.33, -28.32 49.04, 0.44 0.68 M0 0 C0 0, 0 0, 0 0 M0 0 C0 0, 0 0, 0 0" stroke="#000000" stroke-width="1" fill="none"></path></g></g><g stroke-linecap="round"><g transform="translate(1119.1783006790579 325.57476139999926) rotate(180 -2.5735265949625727 76.90020325716864)" fill-rule="evenodd"><path d="M0.33 1.77 L83.97 152.27 L-88.66 152.66 L0.61 -1.07" stroke="none" stroke-width="0" fill="#e64980" fill-rule="evenodd"></path><path d="M-1.75 -0.52 C26.32 46.88, 52.64 89.63, 87.08 154.32 M-0.78 0.77 C23.56 39.63, 45.31 79.64, 86.26 154.06 M84.18 152.9 C22.73 152.16, -38.16 149.33, -92.23 149.92 M86.6 153.73 C36.59 152.23, -12.25 151.27, -89.34 151.47 M-89.14 151.56 C-58.53 97.85, -24.54 43.77, -1.67 1.76 M-90.89 150.61 C-58.11 98.75, -26.2 45.1, -0.08 0.26 M0 0 C0 0, 0 0, 0 0 M0 0 C0 0, 0 0, 0 0" stroke="#000000" stroke-width="1" fill="none"></path></g></g><g stroke-linecap="round"><g transform="translate(1123.5035570267141 174.17045689560473) rotate(180 -2.2105540355552193 76.65466007668148)" fill-rule="evenodd"><path d="M0.09 -0.14 L84.73 153.86 L-91.92 152.86 L-1.21 -0.44" stroke="none" stroke-width="0" fill="#e64980" fill-rule="evenodd"></path><path d="M-0.74 0.04 C24.3 42.24, 47.86 83.73, 84.06 151.62 M-0.11 -0.64 C17.34 32.26, 34.69 62.66, 86.59 152.91 M84.91 153.81 C43.98 151.6, 2.1 154.09, -89.53 153.25 M85.12 153.93 C28.39 154.13, -28.26 152.9, -90.81 150.61 M-89.34 150.91 C-57.37 92.34, -19.96 33.44, 0.75 0.53 M-91.01 151.43 C-72.11 118.36, -51.39 84.05, -0.99 -0.61 M0 0 C0 0, 0 0, 0 0 M0 0 C0 0, 0 0, 0 0" stroke="#000000" stroke-width="1" fill="none"></path></g></g><g stroke-linecap="round"><g transform="translate(1130.000825703472 18.902550706639886) rotate(180 -1.5221262911219355 75.92191238946536)" fill-rule="evenodd"><path d="M-1.19 1.35 L86.1 154.59 L-89.88 151.69 L0.32 -1.59" stroke="none" stroke-width="0" fill="#e64980" fill-rule="evenodd"></path><path d="M-1.67 -1.29 C31.06 56.24, 61.47 113.56, 87.14 152.61 M-0.33 0.92 C31.91 59.7, 65.46 119.45, 86.32 152.94 M84.56 152.9 C16.76 153.73, -55.36 152.09, -90.19 151.92 M86.69 152.94 C19.39 151.96, -48.4 152.09, -89.52 150.77 M-89.91 149.81 C-66.76 109.24, -43.35 67.5, -1.91 1.1 M-89.29 150.89 C-56.41 93.3, -23.96 35.8, 0.51 -0.29 M0 0 C0 0, 0 0, 0 0 M0 0 C0 0, 0 0, 0 0" stroke="#000000" stroke-width="1" fill="none"></path></g></g><g stroke-linecap="round"><g transform="translate(458.49633961948723 318.4706506822258) rotate(180 -2.3021881898749825 77.20103701792937)" fill-rule="evenodd"><path d="M-1.79 0.92 L84.08 152.21 L-90.18 151.02 L-1.95 0.44" stroke="none" stroke-width="0" fill="#e64980" fill-rule="evenodd"></path><path d="M-0.85 -0.57 C19.18 35.04, 40.1 73.1, 85.38 154.17 M-0.98 0.72 C18.88 31.79, 36.36 64.46, 85.53 153.56 M86.03 155.16 C36.46 152.85, -16.8 149.11, -88.72 151.4 M86.59 154.16 C24.34 153.5, -35.33 153.01, -91.19 151.63 M-89.27 151.94 C-55.84 95.7, -24.63 40.14, 1.08 1.54 M-90.92 151.08 C-69.09 115.83, -47.28 79.47, 0.75 -0.76 M0 0 C0 0, 0 0, 0 0 M0 0 C0 0, 0 0, 0 0" stroke="#000000" stroke-width="1" fill="none"></path></g></g><g stroke-linecap="round"><g transform="translate(191.19531422886223 464.21193791367125) rotate(180 -2.4793415699970183 76.2514740518206)" fill-rule="evenodd"><path d="M-0.9 -1.67 L85.21 151.78 L-89.11 152.14 L1.04 -0.53" stroke="none" stroke-width="0" fill="#fa5252" fill-rule="evenodd"></path><path d="M1.96 1.26 C30.16 49.02, 55.53 99.46, 83.97 152.67 M0.25 -0.91 C21.84 37.15, 43.69 76.1, 86.39 153.37 M85.54 153.29 C16.39 154.08, -53.93 150.78, -91.33 151.92 M85.04 153.18 C40.89 153.18, -3.56 153.48, -90.42 151.06 M-91.35 149.68 C-58.28 97.03, -24.78 39.42, -0.66 0.07 M-89.82 150.95 C-65.63 108.22, -39.74 65.81, -0.84 -0.78 M0 0 C0 0, 0 0, 0 0 M0 0 C0 0, 0 0, 0 0" stroke="#000000" stroke-width="1" fill="none"></path></g></g><g stroke-linecap="round"><g transform="translate(948.2055070999562 472.98032475449156) rotate(180 -2.4148751973990557 76.54508146580588)" fill-rule="evenodd"><path d="M-1.2 -1.35 L84.37 154.62 L-88.62 151.99 L-0.93 -1.32" stroke="none" stroke-width="0" fill="#fa5252" fill-rule="evenodd"></path><path d="M1.54 1.54 C17.54 34.9, 35.68 67.05, 86.16 154.5 M-0.83 0.5 C28.36 49.15, 55.25 99.45, 85.37 153.43 M84.98 154.17 C42 154.45, -2.91 152.31, -89.76 151.71 M86.71 153 C25.31 150.95, -32.9 151.69, -91.22 152.13 M-91.54 149.77 C-58.49 100.7, -26.51 46.32, 0.79 -1.41 M-90.35 151.38 C-67.4 111.49, -42.84 72.31, 0.17 0.82 M0 0 C0 0, 0 0, 0 0 M0 0 C0 0, 0 0, 0 0" stroke="#000000" stroke-width="1" fill="none"></path></g></g><g stroke-linecap="round"><g transform="translate(942.4923875931203 321.31452275253844) rotate(180 -2.351415347482657 77.04837179315263)" fill-rule="evenodd"><path d="M1.77 -1.79 L84.86 154.75 L-88.88 151.9 L-1.07 -1.95" stroke="none" stroke-width="0" fill="#fa5252" fill-rule="evenodd"></path><path d="M-0.52 0.64 C27.65 51.94, 52.92 101.2, 86.92 152.42 M0.77 0.8 C26.21 49.01, 53.06 97.78, 86.65 153.66 M85.49 151.63 C47.51 150.44, 6.34 148.96, -91.62 150.89 M86.32 153.23 C36.86 154.59, -11.97 154.52, -90.06 151.78 M-89.98 150.28 C-71.54 119.07, -53.01 82.73, 1.76 1.03 M-90.92 150.45 C-70 118.29, -50.82 85.94, 0.26 0.56 M0 0 C0 0, 0 0, 0 0 M0 0 C0 0, 0 0, 0 0" stroke="#000000" stroke-width="1" fill="none"></path></g></g><g stroke-linecap="round"><g transform="translate(946.8176439407765 169.9102182481439) rotate(180 -2.2060077024508473 75.99166793313155)" fill-rule="evenodd"><path d="M-0.14 -1.03 L86.45 151.49 L-88.68 150.08 L-0.44 -1.77" stroke="none" stroke-width="0" fill="#fa5252" fill-rule="evenodd"></path><path d="M0.04 0.99 C23.3 42.39, 45.44 81.21, 84.21 151.24 M-0.64 0.85 C20.04 37.27, 39.69 73.79, 85.51 152.57 M86.4 153.63 C39.99 152.78, -1.52 152.19, -88.29 151.81 M86.52 153.12 C50.01 152.29, 13.83 150.71, -90.93 152.13 M-90.62 150.46 C-58.48 97.95, -26.56 41.95, 0.53 -1.64 M-90.11 150.83 C-57.43 96.64, -25.42 39.1, -0.61 -0.72 M0 0 C0 0, 0 0, 0 0 M0 0 C0 0, 0 0, 0 0" stroke="#000000" stroke-width="1" fill="none"></path></g></g><g stroke-linecap="round"><g transform="translate(953.3149126175343 14.642312059179062) rotate(180 -3.096915138128793 77.39053838730136)" fill-rule="evenodd"><path d="M1.35 0.34 L87.18 153.53 L-89.85 151.61 L-1.59 1.14" stroke="none" stroke-width="0" fill="#fa5252" fill-rule="evenodd"></path><path d="M-1.29 0.45 C19.69 32.8, 38.6 68.33, 85.21 154.92 M0.92 0.02 C16.1 32.84, 34.51 65.34, 85.54 154.15 M85.49 154.21 C24.62 150.4, -38.26 150.85, -89.62 152.87 M85.53 153.45 C46.26 153.54, 7.93 154.69, -90.77 151.04 M-91.73 151.12 C-57.41 92.77, -23.69 35.62, 1.1 1.53 M-90.64 152 C-59.73 95.83, -28.2 43.37, -0.29 -0.14 M0 0 C0 0, 0 0, 0 0 M0 0 C0 0, 0 0, 0 0" stroke="#000000" stroke-width="1" fill="none"></path></g></g><g stroke-linecap="round"><g transform="translate(281.81042653354973 314.210412034765) rotate(180 -1.3499374810490963 76.66327089753281)" fill-rule="evenodd"><path d="M0.92 -1.68 L84.81 153.23 L-90.52 149.34 L0.44 1.36" stroke="none" stroke-width="0" fill="#fa5252" fill-rule="evenodd"></path><path d="M-0.57 -0.24 C20.72 40.67, 45.19 79.3, 86.76 151.27 M0.72 0.28 C29.89 57, 62.48 112.6, 86.15 153.05 M87.75 154.58 C35.21 151.73, -20.06 153.82, -90.14 152.2 M86.75 152.59 C18.32 154.49, -49.32 152.23, -89.91 151.98 M-89.59 152.67 C-62.03 102.38, -33.3 56.35, 1.54 -1.26 M-90.45 151.4 C-60.59 103.58, -31.96 54.98, -0.76 -0.43 M0 0 C0 0, 0 0, 0 0 M0 0 C0 0, 0 0, 0 0" stroke="#000000" stroke-width="1" fill="none"></path></g></g><g stroke-linecap="round"><g transform="translate(373.8490388992724 164.21994877792906) rotate(180 -1.8918502071757075 75.6021638496993)" fill-rule="evenodd"><path d="M0.81 -1.36 L87.24 153.9 L-91.42 150.12 L1.85 -0.26" stroke="none" stroke-width="0" fill="#fa5252" fill-rule="evenodd"></path><path d="M0.92 -0.91 C21.88 43.87, 44.72 82.79, 85.64 151.94 M-0.33 -0.22 C30.74 55.4, 61.9 111.4, 86.44 152.27 M86.89 152.55 C28.52 152.01, -23.7 151.33, -89.57 152.12 M85.81 152.69 C36.16 152.44, -14.22 151.65, -90.32 150.67 M-90.68 150.09 C-69.37 115.62, -46.89 77.49, 1.93 -1.49 M-90.5 151.78 C-61.23 105.04, -34.11 59.56, -0.98 -0.23 M0 0 C0 0, 0 0, 0 0 M0 0 C0 0, 0 0, 0 0" stroke="#000000" stroke-width="1" fill="none"></path></g></g><g stroke-linecap="round"><g transform="translate(545.3154314163622 469.89383793808514) rotate(180 -2.3200923941914198 76.73570954904287)" fill-rule="evenodd"><path d="M0.71 -1.47 L84.83 152.79 L-90.71 149.71 L-1.59 -0.37" stroke="none" stroke-width="0" fill="#be4bdb" fill-rule="evenodd"></path><path d="M-0.49 0.37 C31.98 57.55, 66.03 113.74, 84.98 152.12 M-0.83 -0.96 C17.71 30.78, 35.3 63.54, 85.54 152.71 M84.74 154.43 C17.8 154.49, -53.35 151.68, -88.47 149.36 M85.31 153.59 C19.95 151.11, -45.25 150.52, -90.18 150.57 M-90.05 151.08 C-58.44 100.35, -31.63 50.35, -1.96 0.3 M-90.13 150.53 C-57.68 96.64, -27.75 43.84, -0.96 0.45 M0 0 C0 0, 0 0, 0 0 M0 0 C0 0, 0 0, 0 0" stroke="#000000" stroke-width="1" fill="none"></path></g></g><g stroke-linecap="round"><g transform="translate(1302.3256242874563 478.66222477890545) rotate(180 -2.232031512248909 77.38853052102306)" fill-rule="evenodd"><path d="M-1.39 1.46 L87.39 153.87 L-91.17 149.97 L0.78 -1.72" stroke="none" stroke-width="0" fill="#be4bdb" fill-rule="evenodd"></path><path d="M-0.31 0.35 C22.79 38.6, 47.54 82.75, 86.24 153.37 M0.43 0.04 C29.01 55.21, 59.83 109.65, 85.23 152.36 M85.42 154.89 C30.91 153.53, -19.85 153.33, -89.45 149.81 M85.05 152.18 C39.65 152.75, -9.09 152.7, -89.79 150.98 M-90.16 152.3 C-68.28 117.19, -48.26 83.16, -0.76 0.48 M-90.7 151.49 C-59.32 101.05, -29.26 50.35, 0.92 -0.11 M0 0 C0 0, 0 0, 0 0 M0 0 C0 0, 0 0, 0 0" stroke="#000000" stroke-width="1" fill="none"></path></g></g><g stroke-linecap="round"><g transform="translate(1296.6125047806204 326.99642277695233) rotate(180 -2.500879365194237 76.1334004097832)" fill-rule="evenodd"><path d="M-1.79 -0.9 L87.35 154.53 L-89.64 150.22 L-1.95 0.75" stroke="none" stroke-width="0" fill="#be4bdb" fill-rule="evenodd"></path><path d="M0.64 1.03 C19.7 33.43, 38.8 70.7, 85.01 153.47 M0.8 -0.67 C23.71 42.86, 49.02 89.02, 86.25 152.38 M84.22 153.91 C43.09 151.07, 0.26 150.66, -90.65 150.79 M85.83 152.67 C32.57 152.65, -20.61 153.2, -89.75 150.49 M-91.26 151.37 C-55.52 92.83, -24.57 38.64, 1.03 -1.65 M-91.08 152 C-62.26 105.77, -34.01 59.4, 0.56 0.04 M0 0 C0 0, 0 0, 0 0 M0 0 C0 0, 0 0, 0 0" stroke="#000000" stroke-width="1" fill="none"></path></g></g><g stroke-linecap="round"><g transform="translate(1300.9377611282766 175.5921182725578) rotate(180 -2.430519554938769 76.6480859217262)" fill-rule="evenodd"><path d="M-1.03 0.69 L84.09 154.73 L-91.46 150.85 L-1.77 -0.3" stroke="none" stroke-width="0" fill="#be4bdb" fill-rule="evenodd"></path><path d="M0.99 -0.08 C27.38 47.45, 52.08 95.48, 83.83 151.93 M0.85 0.58 C21.08 36.97, 41.65 73.48, 85.16 152.69 M86.22 151.84 C31.75 154.76, -23.21 154.51, -89.73 149.33 M85.71 153.01 C16.29 152.98, -55.03 152.32, -89.4 151.92 M-91.08 150.58 C-60.51 102.17, -33.17 56.41, -1.64 1.4 M-90.7 152.15 C-52.96 91.12, -19.04 31.47, -0.72 -0.42 M0 0 C0 0, 0 0, 0 0 M0 0 C0 0, 0 0, 0 0" stroke="#000000" stroke-width="1" fill="none"></path></g></g><g stroke-linecap="round"><g transform="translate(1307.4350298050344 20.324212083592954) rotate(180 -1.4898616254214403 76.75951185666302)" fill-rule="evenodd"><path d="M0.34 1.42 L86.12 153.56 L-89.92 149.71 L1.14 1.33" stroke="none" stroke-width="0" fill="#be4bdb" fill-rule="evenodd"></path><path d="M0.45 -0.04 C30.11 58.77, 64.93 115.79, 87.52 151.38 M0.02 -0.51 C17.47 30.61, 35.4 62.11, 86.74 153.69 M86.8 154.03 C27.54 152.3, -28.54 152.33, -88.67 149.74 M86.04 152.84 C33.74 152.72, -15.86 151.15, -90.5 152.05 M-90.42 151.67 C-56.48 92.51, -21.24 33.73, 1.53 1.11 M-89.54 151.03 C-57.67 92.43, -21.5 34.54, -0.14 -0.39 M0 0 C0 0, 0 0, 0 0 M0 0 C0 0, 0 0, 0 0" stroke="#000000" stroke-width="1" fill="none"></path></g></g><g stroke-linecap="round"><g transform="translate(630.548036396831 471.5012903306633) rotate(0 -1.810180941771364 76.6320418937346)" fill-rule="evenodd"><path d="M0.21 -1.02 L87.03 153.87 L-88.37 149.5 L-0.21 1.77" stroke="none" stroke-width="0" fill="#be4bdb" fill-rule="evenodd"></path><path d="M-1.13 0.46 C24.9 44.19, 48.01 90.05, 85.01 153.81 M-0.09 -0.55 C30.15 54.48, 59.9 108.49, 85.53 152.69 M87.11 153.18 C46.16 151.81, 9.08 152.8, -90.73 149.98 M85.8 153.56 C22.35 153.29, -41.87 151.99, -89.73 151.14 M-90.52 150.54 C-64.88 107.06, -39.82 65.59, -1.15 1.72 M-90.02 151.32 C-63.24 104.62, -34.04 57.27, 0.76 0.46 M0 0 C0 0, 0 0, 0 0 M0 0 C0 0, 0 0, 0 0" stroke="#000000" stroke-width="1" fill="none"></path></g></g><g stroke-linecap="round"><g transform="translate(1387.558229267925 480.26967717148364) rotate(0 -2.119654249574637 76.4866700240625)" fill-rule="evenodd"><path d="M1.46 1.63 L86.46 152.24 L-91.57 152.07 L-1.72 -0.2" stroke="none" stroke-width="0" fill="#be4bdb" fill-rule="evenodd"></path><path d="M0.35 -1.36 C31.73 58.28, 67.17 116.1, 85.97 154.34 M0.04 -0.46 C20.11 32.49, 38.26 65.61, 84.95 153.18 M87.48 151.36 C39.89 152.87, -5.63 152.68, -91.72 150.62 M84.77 154.01 C16.6 150.2, -52.49 150.89, -90.56 150.52 M-89.24 152.17 C-68.95 116.47, -48.06 79.34, 0.48 0.72 M-90.05 151.74 C-63.56 108.06, -37.28 64.97, -0.11 -0.21 M0 0 C0 0, 0 0, 0 0 M0 0 C0 0, 0 0, 0 0" stroke="#000000" stroke-width="1" fill="none"></path></g></g><g stroke-linecap="round"><g transform="translate(1381.8451097610891 328.6038751695305) rotate(0 -2.272040468815362 76.81119717501383)" fill-rule="evenodd"><path d="M-0.9 1.59 L87.13 153.78 L-91.31 149.34 L0.75 1.9" stroke="none" stroke-width="0" fill="#be4bdb" fill-rule="evenodd"></path><path d="M1.03 1.63 C16.39 33.63, 37.24 64.13, 86.07 152.96 M-0.67 0.04 C19.35 33.83, 40.17 67.84, 84.98 152.54 M86.51 152.25 C45.42 149.41, 6.55 150.58, -90.75 151.39 M85.26 153.62 C17.21 153.47, -49.29 152.33, -91.05 152.07 M-90.17 152.77 C-59.58 96.34, -24.57 45.29, -1.65 0.13 M-89.54 150.63 C-67.73 116.35, -46.47 81.38, 0.04 0.85 M0 0 C0 0, 0 0, 0 0 M0 0 C0 0, 0 0, 0 0" stroke="#000000" stroke-width="1" fill="none"></path></g></g><g stroke-linecap="round"><g transform="translate(1386.1703661087454 177.19957066513598) rotate(0 -3.3013463441167232 76.99974259484837)" fill-rule="evenodd"><path d="M0.69 -1.67 L87.32 151.95 L-90.69 149.52 L-0.3 0.37" stroke="none" stroke-width="0" fill="#be4bdb" fill-rule="evenodd"></path><path d="M-0.08 0.78 C21.54 38.18, 43.61 78.24, 84.52 151.95 M0.58 0.75 C23.67 44.45, 48.42 87.36, 85.29 153.28 M84.44 154 C42.01 153.81, -3.02 153.12, -92.2 153.26 M85.6 153.81 C43.51 152.07, 2.14 153.04, -89.62 151.45 M-90.95 153.2 C-60.29 100.17, -27.1 45.53, 1.4 1.87 M-89.39 151.89 C-70.81 116.95, -50.77 83.45, -0.42 0.17 M0 0 C0 0, 0 0, 0 0 M0 0 C0 0, 0 0, 0 0" stroke="#000000" stroke-width="1" fill="none"></path></g></g><g stroke-linecap="round"><g transform="translate(1392.6676347855032 21.931664476171136) rotate(0 -2.5838124269504306 76.27118440762587)" fill-rule="evenodd"><path d="M1.42 0.36 L86.16 153.49 L-91.83 152.43 L1.33 -0.16" stroke="none" stroke-width="0" fill="#be4bdb" fill-rule="evenodd"></path><path d="M-0.04 -1.03 C17.89 34.33, 35.58 67.85, 83.97 151.29 M-0.51 0.31 C24.13 41.42, 46.96 82.72, 86.28 153.42 M86.63 152.12 C43.52 153.69, 1.94 154.76, -91.79 151.11 M85.43 152.33 C17.17 153.66, -52.96 151.94, -89.49 152.24 M-89.87 149.73 C-60.31 101.51, -30.82 57.01, 1.11 1.72 M-90.51 150.48 C-54.75 91.3, -18.52 30.78, -0.39 -0.24 M0 0 C0 0, 0 0, 0 0 M0 0 C0 0, 0 0, 0 0" stroke="#000000" stroke-width="1" fill="none"></path></g></g></svg>