<svg version="1.1" xmlns="http://www.w3.org/2000/svg" viewBox="0 0 378.8099702777155 337.4933426163746" width="757.619940555431" height="674.9866852327492">
  <!-- svg-source:excalidraw -->
  
  <defs>
    <style>
      @font-face {
        font-family: "Virgil";
        src: url("https://excalidraw.com/Virgil.woff2");
      }
      @font-face {
        font-family: "Cascadia";
        src: url("https://excalidraw.com/Cascadia.woff2");
      }
    </style>
  </defs>
  <rect x="0" y="0" width="378.8099702777155" height="337.4933426163746" fill="#ffffff"></rect><g stroke-linecap="round"><g transform="translate(102.84815781618249 169.96604634832312) rotate(0 -2.8606810902130064 76.40760028997715)" fill-rule="evenodd"><path d="M0.78 0.79 L87.2 153.09 L-90.06 152.33 L-0.31 -0.39" stroke="none" stroke-width="0" fill="#ced4da" fill-rule="evenodd"></path><path d="M-0.63 -0.48 C18.27 36.6, 37.92 70.47, 84.24 151.83 M-0.84 0.76 C31.55 56.66, 63.88 114.63, 85.4 153.27 M84.11 153.49 C18.61 148.89, -47.41 149.8, -91.26 149.82 M85.54 153.95 C36.57 151.5, -12.99 151.32, -90.32 150.94 M-89.63 150.52 C-69.87 120.71, -51.85 88.51, -0.21 -1.13 M-91.23 151.72 C-61.38 102.97, -31.37 53.86, -0.6 -0.09 M0 0 C0 0, 0 0, 0 0 M0 0 C0 0, 0 0, 0 0" stroke="#000000" stroke-width="1" fill="none"></path></g></g><g stroke-linecap="round"><g transform="translate(104.85523789430749 15.504803672541897) rotate(0 -2.32805316493625 76.49037510904388)" fill-rule="evenodd"><path d="M0.35 -1.13 L84.86 151.5 L-90.79 149.9 L1.13 0.85" stroke="none" stroke-width="0" fill="#ced4da" fill-rule="evenodd"></path><path d="M0.73 0.73 C25.94 42.56, 48.99 82.44, 85.06 153.52 M-0.36 0.91 C17.94 31.75, 36.38 63.99, 86.48 152.3 M85.57 153.11 C21.64 154.27, -42.02 155.17, -91.13 150.43 M86.09 153.81 C41.77 151.88, -1.22 150.76, -90.73 151.42 M-88.51 151.43 C-65.53 106.39, -38.71 66.49, 0.72 -1.05 M-89.54 151.47 C-65.77 110.67, -42.13 70.81, 0.13 0.92 M0 0 C0 0, 0 0, 0 0 M0 0 C0 0, 0 0, 0 0" stroke="#000000" stroke-width="1" fill="none"></path></g></g><g stroke-linecap="round"><g transform="translate(279.443983011495 173.68388082097937) rotate(0 -1.810180941771364 76.6320418937346)" fill-rule="evenodd"><path d="M0.21 -1.02 L87.03 153.87 L-88.37 149.5 L-0.21 1.77" stroke="none" stroke-width="0" fill="#ced4da" fill-rule="evenodd"></path><path d="M-1.13 0.46 C24.9 44.19, 48.01 90.05, 85.01 153.81 M-0.09 -0.55 C30.15 54.48, 59.9 108.49, 85.53 152.69 M87.11 153.18 C46.16 151.81, 9.08 152.8, -90.73 149.98 M85.8 153.56 C22.35 153.29, -41.87 151.99, -89.73 151.14 M-90.52 150.54 C-64.88 107.06, -39.82 65.59, -1.15 1.72 M-90.02 151.32 C-63.24 104.62, -34.04 57.27, 0.76 0.46 M0 0 C0 0, 0 0, 0 0 M0 0 C0 0, 0 0, 0 0" stroke="#000000" stroke-width="1" fill="none"></path></g></g><g stroke-linecap="round"><g transform="translate(281.68720810915124 18.512310996760647) rotate(0 -2.3504276766326484 76.47789515026192)" fill-rule="evenodd"><path d="M-1.13 -0.9 L84.09 152.62 L-91.63 152.43 L0.85 1.04" stroke="none" stroke-width="0" fill="#ced4da" fill-rule="evenodd"></path><path d="M0.73 1.96 C31.49 54.77, 59.71 105.63, 86.11 151.38 M0.91 0.25 C21.99 43.1, 45.56 85.35, 84.9 153.8 M85.71 152.95 C29.49 152.42, -25.3 150.91, -91.1 150.21 M86.4 152.45 C27.42 152.68, -31.6 152.02, -90.12 151.11 M-90.11 150.19 C-67.9 108.92, -40.16 67.56, -1.05 -0.66 M-90.06 151.72 C-62.96 104.68, -35.01 58.93, 0.92 -0.84 M0 0 C0 0, 0 0, 0 0 M0 0 C0 0, 0 0, 0 0" stroke="#000000" stroke-width="1" fill="none"></path></g></g><g stroke-linecap="round"><g transform="translate(192.81001084352624 170.33537007879187) rotate(180 -2.3200923941914198 76.7357095490429)" fill-rule="evenodd"><path d="M0.71 -1.47 L84.83 152.79 L-90.71 149.71 L-1.59 -0.37" stroke="none" stroke-width="0" fill="#ced4da" fill-rule="evenodd"></path><path d="M-0.49 0.37 C31.98 57.55, 66.03 113.74, 84.98 152.12 M-0.83 -0.96 C17.71 30.78, 35.3 63.54, 85.54 152.71 M84.74 154.43 C17.8 154.49, -53.35 151.68, -88.47 149.36 M85.31 153.59 C19.95 151.11, -45.25 150.52, -90.18 150.57 M-90.05 151.08 C-58.44 100.35, -31.63 50.35, -1.96 0.3 M-90.13 150.53 C-57.68 96.64, -27.75 43.84, -0.96 0.45 M0 0 C0 0, 0 0, 0 0 M0 0 C0 0, 0 0, 0 0" stroke="#000000" stroke-width="1" fill="none"></path></g></g><g stroke-linecap="round"><g transform="translate(195.37470810915124 15.22533895086221) rotate(180 -2.4793415699970183 76.25147405182061)" fill-rule="evenodd"><path d="M-0.9 -1.67 L85.21 151.78 L-89.11 152.14 L1.04 -0.53" stroke="none" stroke-width="0" fill="#ced4da" fill-rule="evenodd"></path><path d="M1.96 1.26 C30.16 49.02, 55.53 99.46, 83.97 152.67 M0.25 -0.91 C21.84 37.15, 43.69 76.1, 86.39 153.37 M85.54 153.29 C16.39 154.08, -53.93 150.78, -91.33 151.92 M85.04 153.18 C40.89 153.18, -3.56 153.48, -90.42 151.06 M-91.35 149.68 C-58.28 97.03, -24.78 39.42, -0.66 0.07 M-89.82 150.95 C-65.63 108.22, -39.74 65.81, -0.84 -0.78 M0 0 C0 0, 0 0, 0 0 M0 0 C0 0, 0 0, 0 0" stroke="#000000" stroke-width="1" fill="none"></path></g></g><g stroke-linecap="round"><g transform="translate(11.251576960459374 318.85704064689577) rotate(0 44.78440460525451 -75.56264493875204)"><path d="M0.14 1.18 C14.81 -24.05, 73.87 -126.6, 88.58 -152.3 M-1.25 0.75 C13.74 -24.22, 75.49 -125.44, 90.82 -150.94" stroke="#000000" stroke-width="4" fill="none"></path></g></g><g stroke-linecap="round"><g transform="translate(101.46562725342812 168.58280968986452) rotate(0 -40.862538735046996 -0.7486346454173258)"><path d="M-0.56 -0.96 C-14.34 -1.36, -68.54 -2.37, -82.5 -2.65 M1.35 1.15 C-12.54 0.95, -69.19 -0.79, -83.07 -1.21" stroke="#000000" stroke-width="4" fill="none"></path></g></g><g stroke-linecap="round"><g transform="translate(17.881032526865624 166.24247765861452) rotate(0 43.72109897919 -77.78664274401962)"><path d="M-0.56 0.22 C13.93 -25.66, 73.04 -129.83, 88 -155.8 M1.35 -0.7 C15.55 -26.33, 72.24 -128.66, 86.83 -154.24" stroke="#000000" stroke-width="4" fill="none"></path></g></g><g stroke-linecap="round"><g transform="translate(105.85643535889687 11.712356809005144) rotate(0 87.31918547935788 0.41087696112691674)"><path d="M0.96 -0.44 C29.91 -0.1, 145.68 1.16, 174.63 1.43 M0.01 -1.71 C28.79 -1.2, 145.04 1.92, 174.1 2.53" stroke="#000000" stroke-width="4" fill="none"></path></g></g><g stroke-linecap="round"><g transform="translate(278.6696677807719 14.119674924239519) rotate(0 43.97146426253016 77.84804663397371)"><path d="M-0.36 -1.15 C14.55 24.78, 73.74 129.21, 88.3 155.24 M1.65 0.86 C16.61 27.03, 73.88 130.93, 87.96 156.85" stroke="#000000" stroke-width="4" fill="none"></path></g></g><g stroke-linecap="round"><g transform="translate(367.5236106518656 171.86888146720827) rotate(0 -44.21611813118682 -1.6099968452006692)"><path d="M-0.6 -0.43 C-15.22 -0.87, -73.85 -2.63, -88.56 -2.79 M1.29 -1.69 C-13.46 -1.97, -75.12 -1.22, -89.72 -1.47" stroke="#000000" stroke-width="4" fill="none"></path></g></g><g stroke-linecap="round"><g transform="translate(278.6757712963969 172.60942101798952) rotate(0 42.9572122932226 77.55112600483002)"><path d="M-0.24 0.88 C14.43 26.55, 72.91 127.94, 87.73 153.74 M-1.82 0.29 C12.71 26.11, 71.77 129.21, 86.81 154.81" stroke="#000000" stroke-width="4" fill="none"></path></g></g></svg>