<svg version="1.1" xmlns="http://www.w3.org/2000/svg" viewBox="0 0 727.6545307490309 183.19693766035698" width="1455.3090614980617" height="366.39387532071396">
  <!-- svg-source:excalidraw -->
  
  <defs>
    <style>
      @font-face {
        font-family: "Virgil";
        src: url("https://excalidraw.com/Virgil.woff2");
      }
      @font-face {
        font-family: "Cascadia";
        src: url("https://excalidraw.com/Cascadia.woff2");
      }
    </style>
  </defs>
  <rect x="0" y="0" width="727.6545307490309" height="183.19693766035698" fill="#ffffff"></rect><g stroke-linecap="round"><g transform="translate(278.02832204136234 14.230615513399243) rotate(0 -2.8606810902130064 76.40760028997715)" fill-rule="evenodd"><path d="M0.78 0.79 L87.2 153.09 L-90.06 152.33 L-0.31 -0.39" stroke="none" stroke-width="0" fill="#fa5252" fill-rule="evenodd"></path><path d="M-0.63 -0.48 C18.27 36.6, 37.92 70.47, 84.24 151.83 M-0.84 0.76 C31.55 56.66, 63.88 114.63, 85.4 153.27 M84.11 153.49 C18.61 148.89, -47.41 149.8, -91.26 149.82 M85.54 153.95 C36.57 151.5, -12.99 151.32, -90.32 150.94 M-89.63 150.52 C-69.87 120.71, -51.85 88.51, -0.21 -1.13 M-91.23 151.72 C-61.38 102.97, -31.37 53.86, -0.6 -0.09 M0 0 C0 0, 0 0, 0 0 M0 0 C0 0, 0 0, 0 0" stroke="#000000" stroke-width="1" fill="none"></path></g></g><g stroke-linecap="round"><g transform="translate(101.1344621780811 11.053979771211743) rotate(0 -2.32805316493625 76.4903751090439)" fill-rule="evenodd"><path d="M0.35 -1.13 L84.86 151.5 L-90.79 149.9 L1.13 0.85" stroke="none" stroke-width="0" fill="#ced4da" fill-rule="evenodd"></path><path d="M0.73 0.73 C25.94 42.56, 48.99 82.44, 85.06 153.52 M-0.36 0.91 C17.94 31.75, 36.38 63.99, 86.48 152.3 M85.57 153.11 C21.64 154.27, -42.02 155.17, -91.13 150.43 M86.09 153.81 C41.77 151.88, -1.22 150.76, -90.73 151.42 M-88.51 151.43 C-65.53 106.39, -38.71 66.49, 0.72 -1.05 M-89.54 151.47 C-65.77 110.67, -42.13 70.81, 0.13 0.92 M0 0 C0 0, 0 0, 0 0 M0 0 C0 0, 0 0, 0 0" stroke="#000000" stroke-width="1" fill="none"></path></g></g><g stroke-linecap="round"><g transform="translate(454.62414723667484 17.824548618867993) rotate(0 -1.9379112615134773 75.99256326986756)" fill-rule="evenodd"><path d="M-0.02 -1.42 L84.99 153.03 L-90.69 149.76 L1.91 1.63" stroke="none" stroke-width="0" fill="#e64980" fill-rule="evenodd"></path><path d="M-1.22 -1.9 C30.69 54.47, 61.1 113.04, 85.09 151.58 M0.12 0.1 C21.41 40.21, 44.61 79.11, 85.39 153.89 M85.83 152.01 C28.42 152.03, -29.8 150.58, -89.22 149.5 M85.71 153.6 C17.1 152.59, -50.97 153.01, -89.33 151.43 M-89.25 150.2 C-69.78 119.16, -50.23 85.91, -0.7 -0.38 M-89.71 151.8 C-66.42 111.69, -43.18 73.28, -0.96 -0.4 M0 0 C0 0, 0 0, 0 0 M0 0 C0 0, 0 0, 0 0" stroke="#000000" stroke-width="1" fill="none"></path></g></g><g stroke-linecap="round"><g transform="translate(367.88122731479984 16.358362095430493) rotate(180 -1.5741327737342772 76.47900596384238)" fill-rule="evenodd"><path d="M0.24 -1.08 L84.87 154.33 L-90.92 149.7 L-0.81 -0.64" stroke="none" stroke-width="0" fill="#e64980" fill-rule="evenodd"></path><path d="M-1.84 -0.07 C32.67 58.3, 67.85 119.29, 86.88 154.03 M-0.06 0.38 C26.67 48.01, 52.75 96.9, 86.74 153.7 M85.45 154.61 C27.22 151.26, -34.28 151.08, -89.26 152.89 M86.18 152.58 C25.85 151.44, -33.56 151.23, -89.56 151.95 M-88.81 149.95 C-61.34 102.48, -30.99 55.35, -1.62 -1.65 M-90.02 151.69 C-68.33 110.05, -44.17 71.32, 0.11 0.17 M0 0 C0 0, 0 0, 0 0 M0 0 C0 0, 0 0, 0 0" stroke="#000000" stroke-width="1" fill="none"></path></g></g><g stroke-linecap="round"><g transform="translate(191.19531422886234 12.09812344796967) rotate(180 -2.4793415699970183 76.2514740518206)" fill-rule="evenodd"><path d="M-0.9 -1.67 L85.21 151.78 L-89.11 152.14 L1.04 -0.53" stroke="none" stroke-width="0" fill="#fa5252" fill-rule="evenodd"></path><path d="M1.96 1.26 C30.16 49.02, 55.53 99.46, 83.97 152.67 M0.25 -0.91 C21.84 37.15, 43.69 76.1, 86.39 153.37 M85.54 153.29 C16.39 154.08, -53.93 150.78, -91.33 151.92 M85.04 153.18 C40.89 153.18, -3.56 153.48, -90.42 151.06 M-91.35 149.68 C-58.28 97.03, -24.78 39.42, -0.66 0.07 M-89.82 150.95 C-65.63 108.22, -39.74 65.81, -0.84 -0.78 M0 0 C0 0, 0 0, 0 0 M0 0 C0 0, 0 0, 0 0" stroke="#000000" stroke-width="1" fill="none"></path></g></g><g stroke-linecap="round"><g transform="translate(545.3154314163623 17.78002347238356) rotate(180 -2.3200923941914198 76.73570954904287)" fill-rule="evenodd"><path d="M0.71 -1.47 L84.83 152.79 L-90.71 149.71 L-1.59 -0.37" stroke="none" stroke-width="0" fill="#be4bdb" fill-rule="evenodd"></path><path d="M-0.49 0.37 C31.98 57.55, 66.03 113.74, 84.98 152.12 M-0.83 -0.96 C17.71 30.78, 35.3 63.54, 85.54 152.71 M84.74 154.43 C17.8 154.49, -53.35 151.68, -88.47 149.36 M85.31 153.59 C19.95 151.11, -45.25 150.52, -90.18 150.57 M-90.05 151.08 C-58.44 100.35, -31.63 50.35, -1.96 0.3 M-90.13 150.53 C-57.68 96.64, -27.75 43.84, -0.96 0.45 M0 0 C0 0, 0 0, 0 0 M0 0 C0 0, 0 0, 0 0" stroke="#000000" stroke-width="1" fill="none"></path></g></g><g stroke-linecap="round"><g transform="translate(630.5480363968311 19.387475864961743) rotate(0 -1.810180941771307 76.6320418937346)" fill-rule="evenodd"><path d="M0.21 -1.02 L87.03 153.87 L-88.37 149.5 L-0.21 1.77" stroke="none" stroke-width="0" fill="#be4bdb" fill-rule="evenodd"></path><path d="M-1.13 0.46 C24.9 44.19, 48.01 90.05, 85.01 153.81 M-0.09 -0.55 C30.15 54.48, 59.9 108.49, 85.53 152.69 M87.11 153.18 C46.16 151.81, 9.08 152.8, -90.73 149.98 M85.8 153.56 C22.35 153.29, -41.87 151.99, -89.73 151.14 M-90.52 150.54 C-64.88 107.06, -39.82 65.59, -1.15 1.72 M-90.02 151.32 C-63.24 104.62, -34.04 57.27, 0.76 0.46 M0 0 C0 0, 0 0, 0 0 M0 0 C0 0, 0 0, 0 0" stroke="#000000" stroke-width="1" fill="none"></path></g></g></svg>